<?xml version="1.0" encoding="utf-8"?>
<!-- Generator: Adobe Illustrator 25.1.0, SVG Export Plug-In . SVG Version: 6.00 Build 0)  -->
<svg version="1.0" id="Layer_1" xmlns="http://www.w3.org/2000/svg" xmlns:xlink="http://www.w3.org/1999/xlink" x="0px" y="0px"
	 viewBox="0 0 280 300" enable-background="new 0 0 280 300" xml:space="preserve">
<g>
</g>
<g>
	<rect x="93.47" y="168.57" fill="#00A7E0" width="9.39" height="37.23"/>
	<path fill="#00A7E0" d="M178.62,179.25c-0.38-0.19-3.41-2-7.89-2c-6.08,0-10.3,4.25-10.3,9.94c0,5.53,4.04,9.94,10.3,9.94
		c4.41,0,7.49-1.75,7.89-1.97v9.99c-1.18,0.34-4.39,1.33-8.56,1.33c-10.57,0-19.84-7.29-19.84-19.29c0-11.12,8.39-19.26,19.84-19.26
		c4.41,0,7.68,1.07,8.56,1.33V179.25z"/>
	<path fill="#00A7E0" d="M80.55,179.25c-0.39-0.19-3.4-2-7.89-2c-6.09,0-10.3,4.25-10.3,9.94c0,5.53,4.03,9.94,10.3,9.94
		c4.4,0,7.47-1.75,7.89-1.97v9.99c-1.18,0.34-4.38,1.33-8.58,1.33c-10.55,0-19.81-7.29-19.81-19.29c0-11.12,8.39-19.26,19.81-19.26
		c4.43,0,7.69,1.07,8.58,1.33V179.25z"/>
	<path fill="#00A7E0" d="M227.85,187.18c0,10.65-8.22,19.29-19.66,19.29c-11.45,0-19.66-8.64-19.66-19.29
		c0-10.64,8.21-19.26,19.66-19.26C219.63,167.92,227.85,176.55,227.85,187.18 M208.18,177.39c-5.58,0-9.72,4.39-9.72,9.79
		c0,5.42,4.14,9.81,9.72,9.81c5.57,0,9.72-4.38,9.72-9.81C217.9,181.79,213.75,177.39,208.18,177.39"/>
	<path fill="#00A7E0" d="M138.5,177.04c-0.13-0.05-4.11-1.14-7.34-1.14c-3.77,0-5.81,1.27-5.81,3.06c0,2.26,2.76,3.05,4.3,3.54
		l2.59,0.83c6.09,1.93,8.87,6.11,8.87,10.64c0,9.36-8.23,12.5-15.42,12.5c-4.99,0-9.67-0.92-10.14-1.01v-8.57
		c0.83,0.21,4.77,1.38,8.87,1.38c4.68,0,6.83-1.36,6.83-3.49c0-1.88-1.86-2.96-4.18-3.69c-0.58-0.19-1.43-0.46-2.02-0.66
		c-5.22-1.65-9.6-4.73-9.6-10.89c0-6.96,5.22-11.65,13.89-11.65c4.57,0,8.87,1.11,9.15,1.19V177.04z"/>
	<path fill="#00A7E0" d="M42.19,128.56c0-2.56-2.09-4.65-4.66-4.65c-2.57,0-4.67,2.09-4.67,4.65v9.77c0,2.59,2.11,4.65,4.67,4.65
		c2.57,0,4.66-2.06,4.66-4.65V128.56z"/>
	<path fill="#00A7E0" d="M67.82,115.73c0-2.56-2.09-4.66-4.67-4.66c-2.58,0-4.66,2.1-4.66,4.66v22.6c0,2.59,2.09,4.66,4.66,4.66
		c2.57,0,4.67-2.06,4.67-4.66V115.73z"/>
	<path fill="#00A7E0" d="M93.43,98.18c0-2.57-2.09-4.65-4.66-4.65c-2.57,0-4.67,2.08-4.67,4.65v49.44c0,2.58,2.09,4.67,4.67,4.67
		c2.56,0,4.66-2.09,4.66-4.67V98.18z"/>
	<path fill="#00A7E0" d="M119.06,115.73c0-2.56-2.09-4.66-4.66-4.66c-2.56,0-4.66,2.1-4.66,4.66v22.6c0,2.59,2.1,4.66,4.66,4.66
		c2.57,0,4.66-2.06,4.66-4.66V115.73z"/>
	<path fill="#00A7E0" d="M144.65,128.56c0-2.56-2.09-4.65-4.63-4.65c-2.57,0-4.67,2.09-4.67,4.65v9.77c0,2.59,2.09,4.65,4.67,4.65
		c2.55,0,4.63-2.06,4.63-4.65V128.56z"/>
	<path fill="#00A7E0" d="M170.3,115.73c0-2.56-2.09-4.66-4.66-4.66c-2.57,0-4.65,2.1-4.65,4.66v22.6c0,2.59,2.08,4.66,4.65,4.66
		c2.57,0,4.66-2.06,4.66-4.66V115.73z"/>
	<path fill="#00A7E0" d="M195.92,98.18c0-2.57-2.07-4.65-4.65-4.65c-2.57,0-4.65,2.08-4.65,4.65v49.44c0,2.58,2.08,4.67,4.65,4.67
		c2.58,0,4.65-2.09,4.65-4.67V98.18z"/>
	<path fill="#00A7E0" d="M221.56,115.73c0-2.56-2.08-4.66-4.71-4.66c-2.57,0-4.65,2.1-4.65,4.66v22.6c0,2.59,2.08,4.66,4.65,4.66
		c2.62,0,4.71-2.06,4.71-4.66V115.73z"/>
	<path fill="#00A7E0" d="M247.14,128.56c0-2.56-2.1-4.65-4.65-4.65c-2.57,0-4.65,2.09-4.65,4.65v9.77c0,2.59,2.08,4.65,4.65,4.65
		c2.55,0,4.65-2.06,4.65-4.65V128.56z"/>
	<polygon fill="#00A7E0" points="241.76,200.9 241.76,201.48 240.11,201.48 240.11,205.81 239.42,205.81 239.42,201.48 
		237.75,201.48 237.75,200.9 	"/>
	<polygon fill="#00A7E0" points="242.11,200.9 243.18,200.9 244.64,204.91 244.68,204.91 246.1,200.9 247.14,200.9 247.14,205.81 
		246.44,205.81 246.44,201.79 246.42,201.79 244.92,205.81 244.27,205.81 242.82,201.79 242.8,201.79 242.8,205.81 242.11,205.81 	
		"/>
</g>
</svg>
